<svg width="232" height="234" viewBox="0 0 232 234" fill="none" xmlns="http://www.w3.org/2000/svg">
<path d="M106.283 232.535C155.083 239.735 195.95 204.202 210.283 185.535C193.283 181.035 184.783 176.035 173.783 158.035C162.783 140.035 170.283 136.535 162.283 107.035C155.883 83.4352 139.95 72.5352 132.783 70.0352C142.783 86.8352 143.283 101.702 142.283 107.035L126.783 139.035L95.7834 160.035L42.2834 142.035L3.78338 93.5352C-7.71662 119.535 9.78338 169.535 19.2834 180.535C28.7834 191.535 45.2834 223.535 106.283 232.535Z" fill="#71DBC8"/>
<path d="M47.7833 114.035C21.7833 79.6352 43.2833 34.3685 57.2833 16.0352C-18.2166 62.5352 -0.216745 132.035 10.2833 148.035C20.7833 164.035 74.2833 201.035 121.783 162.535C159.783 131.735 144.95 87.7018 132.783 69.5352C149.183 100.335 127.617 124.035 114.783 132.035C103.283 140.368 73.7833 148.435 47.7833 114.035Z" fill="#02082B"/>
<path d="M202.283 165.535C203.483 167.135 213.117 170.869 217.783 172.535C234.983 142.135 232.95 106.869 229.783 93.0352C228.283 84.2018 221.983 62.3352 208.783 45.5352C195.583 28.7352 173.617 15.2018 164.283 10.5352C137.083 -4.26485 101.617 -0.298179 87.2834 3.53515C78.8834 9.13515 69.7834 23.8685 66.2834 30.5352C70.2834 28.0352 98.2834 12.0352 129.783 17.5352C161.283 23.0352 182.783 38.5352 196.283 57.0352C209.783 75.5352 215.783 95.5352 215.783 119.535C215.783 138.735 206.783 158.202 202.283 165.535Z" fill="#B8F2E7"/>
</svg>
